<svg width="512" height="512" viewBox="0 0 512 512" xmlns="http://www.w3.org/2000/svg">
  <rect width="512" height="512" fill="#2E2E2E"/>
  <g>
    <!-- Brain -->
    <path d="M160,256c0-53.02,43.98-96,96-96s96,42.98,96,96-43.98,96-96,96-96-42.98-96-96z"
          fill="#8ED1FC"/>
    <path d="M256,160c-53.02,0-96,42.98-96,96s42.98,96,96,96 96-42.98,96-96S309.02,160,256,160z"
          stroke="#4A90E2" stroke-width="8" fill="none"/>
    <!-- Stylized gyri -->
    <path d="M220,220c20,10 40,10 60,0" stroke="#4A90E2" stroke-width="6" fill="none"/>
    <path d="M230,250c15,10 35,10 50,0" stroke="#4A90E2" stroke-width="6" fill="none"/>
    <path d="M240,280c10,10 30,10 40,0" stroke="#4A90E2" stroke-width="6" fill="none"/>
    
    <!-- Memory Card -->
    <rect x="320" y="200" width="80" height="112" rx="10" fill="#F5A623"/>
    <rect x="328" y="208" width="64" height="16" fill="#F8E71C"/>
    <line x1="332" y1="208" x2="332" y2="224" stroke="#D98500" stroke-width="4"/>
    <line x1="344" y1="208" x2="344" y2="224" stroke="#D98500" stroke-width="4"/>
    <line x1="356" y1="208" x2="356" y2="224" stroke="#D98500" stroke-width="4"/>
    <line x1="368" y1="208" x2="368" y2="224" stroke="#D98500" stroke-width="4"/>
    <line x1="380" y1="208" x2="380" y2="224" stroke="#D98500" stroke-width="4"/>
  </g>
</svg>
